<?xml version="1.0" encoding="UTF-8" standalone="no"?>
<svg
   xmlns:dc="http://purl.org/dc/elements/1.1/"
   xmlns:cc="http://creativecommons.org/ns#"
   xmlns:rdf="http://www.w3.org/1999/02/22-rdf-syntax-ns#"
   xmlns:svg="http://www.w3.org/2000/svg"
   xmlns="http://www.w3.org/2000/svg"
   xmlns:sodipodi="http://sodipodi.sourceforge.net/DTD/sodipodi-0.dtd"
   xmlns:inkscape="http://www.inkscape.org/namespaces/inkscape"
   id="svg5"
   width="511.26"
   height="279.01"
   viewBox="0 0 511.26 279.01"
   version="1.1"
   sodipodi:docname="leopard-a5.svg"
   inkscape:version="0.92.4 (5da689c313, 2019-01-14)">
  <metadata
     id="metadata51">
    <rdf:RDF>
      <cc:Work
         rdf:about="">
        <dc:format>image/svg+xml</dc:format>
        <dc:type
           rdf:resource="http://purl.org/dc/dcmitype/StillImage" />
        <dc:title></dc:title>
      </cc:Work>
    </rdf:RDF>
  </metadata>
  <sodipodi:namedview
     pagecolor="#ffffff"
     bordercolor="#666666"
     borderopacity="1"
     objecttolerance="10"
     gridtolerance="10"
     guidetolerance="10"
     inkscape:pageopacity="0"
     inkscape:pageshadow="2"
     inkscape:window-width="1236"
     inkscape:window-height="932"
     id="namedview49"
     showgrid="false"
     inkscape:pagecheckerboard="true"
     inkscape:snap-nodes="false"
     inkscape:snap-others="false"
     inkscape:zoom="1.1109807"
     inkscape:cx="467.16415"
     inkscape:cy="198.0046"
     inkscape:window-x="1132"
     inkscape:window-y="284"
     inkscape:window-maximized="0"
     inkscape:current-layer="svg5" />
  <defs
     id="defs44">
    <style
       id="style42">
      .cls-1 {
        fill: #fff;
        stroke-width: 0px;
      }
    </style>
  </defs>
  <g
     id="layer1"
     transform="matrix(0.42705816,0,0,0.4240561,146.92573,52.807548)">
    <path
       id="path356"
       class="cls-1"
       d="m 15.040755,232.49393 c 1.53,0 31.02,1.45 31.02,1.45 l 5.08,-2.03 -1.27,-1.45 19.32,-25.29 9.41,-4.07 -1.02,-6.98 0.51,-1.45 3.56,-1.74 2.29,-2.91 v -1.45 l -4.07,-1.45 -2.8,-12.5 h 6.36 l 0.25,-4.07 -6.36,-0.58 5.08,-17.15 24.409995,-13.08 18.05,0.29 -8.9,-8.72 -8.9,-9.88 -17.289995,-38.360002 -1.02,-7.85 17.799995,-1.16 56.18,52.020002 22.88,-16.57 -0.76,-8.720002 3.56,-4.94 -5.85,-11.33 0.76,-52.6 18.81,-2.33 28.98,54.93 26.44,-5.23 5.85,2.62 9.15,-1.45 4.07,3.78 18.81,-2.62 10.93,9.88 5.34,11.920002 -6.86,5.81 10.42,-0.29 1.53,-3.49 93.56,-3.780002 40.68,-1.16 40.17,31.100002 28.47,31.68 -8.14,35.75 -12.46,11.04 -5.08,0.58 -6.1,12.79 -14.49,16.28 -35.08,6.68 -10.68,-3.49 -16.27,1.45 -3.31,-2.91 -25.68,0.29 -1.27,2.33 h -42.96 l -26.19,-0.87 -68.39,-1.74 -1.02,-2.91 0.51,-3.78 -4.32,-11.92 h -28.47 l -9.41,-8.14 -9.66,0.29 -9.41,6.68 -6.86,0.29 -5.85,4.94 -35.59,-0.87 -1.78,4.07 -15,8.72 -4.07,-2.33 -58.219995,36.33 -5.59,4.94 0.51,29.64 -24.66,1.16 -7.37,-21.8 -7.3700002,-6.98 -1.53,-27.9 3.5600002,-2.03 -0.51,-8.14 3.56,-7.27 z"
       inkscape:connector-curvature="0"
       style="fill:#ffffff;stroke-width:0px" />
  </g>
  <path
     style="display:inline;fill:#ffffff;fill-opacity:1;stroke:#ffffff;stroke-width:8.31268311px;stroke-linecap:butt;stroke-linejoin:miter;stroke-opacity:1"
     d="m 108.07153,41.903692 c 2.32709,-0.709471 37.23337,-36.9282149 40.33614,-37.6382549 3.10267,-0.7094743 165.22298,0 165.22298,0 l -0.77582,24.8555009 -151.26051,-1.418961 -24.82211,26.986311 -2.3271,181.090392 26.37356,23.43544 199.35354,-2.13138 26.37366,-20.59459 1.55147,-149.84355 h 27.92497 l -3.1026,161.91629 -34.90626,34.79805 -231.93274,-2.84086 -34.90617,-36.21812 z"
     id="path3871"
     inkscape:connector-curvature="0" />
  <path
     style="display:inline;fill:#ffffff;fill-opacity:1;stroke:#ffffff;stroke-width:1.80845642px;stroke-linecap:butt;stroke-linejoin:miter;stroke-opacity:1"
     d="m 362.69193,32.51716 1.95016,-13.60684 5.93518,0.462058 -5.08732,29.596726 0.42396,3.228706 0.84792,2.690785 0.8479,1.921698 0.93265,0.845621 0.93265,0.159813 1.5262,-0.307416 1.0175,-1.229355 0.33902,-1.691285 0.33903,-2.690784 1.4415,-0.159813 -0.59359,5.61175 -1.27187,4.76615 -2.03489,1.99882 c 0,0 -0.93265,0.614689 -1.52619,0.385445 -0.59359,-0.230791 -2.28929,-1.307527 -2.28929,-1.307527 l -2.20452,-9.148066 -1.44135,3.228706 -2.20447,3.536071 -2.96762,2.460188 -2.11971,0.769231 -2.79801,0.23079 -2.79802,-0.23079 -1.95012,-0.922044 -3.47635,-3.305614 -1.18697,-2.479219 -0.91149,-2.229387 -0.44511,-1.595345 -0.59359,-1.749886 -0.48749,-3.017333 -0.19087,-2.998098 -0.25437,-3.766872 c 0,0 0.33941,-5.458093 0.33941,-5.765599 0,-0.307417 0.67828,-4.535584 0.67828,-4.535584 l 1.5262,-5.227486 2.03492,-4.07438 1.95016,-2.075537 2.37407,-1.536731 1.61097,-0.76923 0.93265,3.920671 -1.35661,1.076595 -0.8479,0.922043 -0.84791,1.4603 -0.50869,2.075588 -0.59356,1.99878 -0.33942,2.921209 -0.25436,3.22889 -0.33901,3.305473 0.16969,5.458094 0.25437,2.767542 v 3.690065 l 0.67827,3.536263 1.10225,3.920477 1.18702,2.229389 2.1197,0.998423 1.61097,-0.230791 1.18702,-0.614678 2.28928,-3.074866 1.69578,-4.305169 2.88281,-15.912935 z"
     id="path3884"
     inkscape:connector-curvature="0" />
  <path
     style="display:inline;fill:#ffffff;fill-opacity:1;stroke:#ffffff;stroke-width:1.80845642px;stroke-linecap:butt;stroke-linejoin:miter;stroke-opacity:1"
     d="m 352.43491,17.283866 1.28903,0.01883 0.80939,0.326689 1.22907,0.788788 1.34888,0.952214 0.98924,0.788789 1.13916,1.412351 1.16907,1.875356 0.80938,1.793978 1.31898,3.995261 0.62957,1.984076 -0.86939,5.84363 -0.20968,-1.549135 -0.86939,-3.288785 -1.10922,-3.315762 -0.92925,-2.527675 -1.34903,-2.418966 -0.68958,-0.652003 -1.46889,-1.142312 c 0,0 -0.72123,-0.124553 -0.76568,-0.124553 -0.0442,0 -1.26862,-0.005 -1.26862,-0.005 z"
     id="path3886"
     inkscape:connector-curvature="0" />
  <path
     style="display:inline;fill:#ffffff;fill-opacity:1;stroke:#ffffff;stroke-width:0;stroke-linecap:butt;stroke-linejoin:miter;stroke-miterlimit:4;stroke-dasharray:none;stroke-opacity:1"
     d="m 352.92362,22.909538 -0.52457,0.03755 -1.30103,0.875834 -0.86038,0.685758 -2.3502,-5.936038 c 0,0 0.88139,-0.799413 0.98626,-0.875844 0.10505,-0.07093 1.48987,-0.913119 1.48987,-0.913119 l 0.79739,-0.342664 0.23085,-0.01883 1.78366,5.745768 z"
     id="path3888"
     inkscape:connector-curvature="0" />
  <path
     style="fill:#ffffff;fill-opacity:1;stroke:#ffffff;stroke-width:0;stroke-linecap:butt;stroke-linejoin:miter;stroke-miterlimit:4;stroke-dasharray:none;stroke-opacity:1"
     d="m 241.05871,185.17351 18.08049,48.03087 5.42341,-5.46229 -18.06891,-48.00012 z"
     id="path943-5"
     inkscape:connector-curvature="0" />
  <path
     style="fill:#ffffff;fill-opacity:1;stroke:#ffffff;stroke-width:0;stroke-linecap:butt;stroke-linejoin:miter;stroke-miterlimit:4;stroke-dasharray:none;stroke-opacity:1"
     d="m 273.99408,178.98847 -16.97615,49.0973 5.54384,5.12866 16.96529,-49.06588 z"
     id="path943-5-9"
     inkscape:connector-curvature="0" />
</svg>
