<?xml version="1.0" encoding="UTF-8" standalone="no"?>
<svg
   xmlns:dc="http://purl.org/dc/elements/1.1/"
   xmlns:cc="http://creativecommons.org/ns#"
   xmlns:rdf="http://www.w3.org/1999/02/22-rdf-syntax-ns#"
   xmlns:svg="http://www.w3.org/2000/svg"
   xmlns="http://www.w3.org/2000/svg"
   xmlns:sodipodi="http://sodipodi.sourceforge.net/DTD/sodipodi-0.dtd"
   xmlns:inkscape="http://www.inkscape.org/namespaces/inkscape"
   id="svg5"
   width="511.26"
   height="279.01"
   viewBox="0 0 511.26 279.01"
   version="1.1"
   sodipodi:docname="vee-a3.svg"
   inkscape:version="0.92.4 (5da689c313, 2019-01-14)">
  <metadata
     id="metadata51">
    <rdf:RDF>
      <cc:Work
         rdf:about="">
        <dc:format>image/svg+xml</dc:format>
        <dc:type
           rdf:resource="http://purl.org/dc/dcmitype/StillImage" />
        <dc:title></dc:title>
      </cc:Work>
    </rdf:RDF>
  </metadata>
  <sodipodi:namedview
     pagecolor="#ffffff"
     bordercolor="#666666"
     borderopacity="1"
     objecttolerance="10"
     gridtolerance="10"
     guidetolerance="10"
     inkscape:pageopacity="0"
     inkscape:pageshadow="2"
     inkscape:window-width="1236"
     inkscape:window-height="977"
     id="namedview49"
     showgrid="false"
     inkscape:pagecheckerboard="true"
     inkscape:snap-nodes="false"
     inkscape:snap-others="false"
     inkscape:zoom="1.571164"
     inkscape:cx="273.06501"
     inkscape:cy="34.600664"
     inkscape:window-x="2440"
     inkscape:window-y="338"
     inkscape:window-maximized="0"
     inkscape:current-layer="svg5" />
  <defs
     id="defs44">
    <style
       id="style42">
      .cls-1 {
        fill: #fff;
        stroke-width: 0px;
      }
    </style>
  </defs>
  <path
     style="display:inline;fill:#ffffff;fill-opacity:1;stroke:#ffffff;stroke-width:8.31268311px;stroke-linecap:butt;stroke-linejoin:miter;stroke-opacity:1"
     d="m 100.73803,37.850103 c 2.32709,-0.709471 37.23337,-36.92821453 40.33614,-37.63825453 3.10267,-0.709474 165.22298,0 165.22298,0 l -0.77582,24.85550053 -151.26051,-1.418961 -24.82211,26.986311 -2.3271,181.090401 26.37356,23.43544 199.35354,-2.13138 26.37366,-20.59459 1.55147,-149.843559 h 27.92497 l -3.1026,161.916299 -34.90626,34.79805 -231.93274,-2.84086 -34.90617,-36.21812 z"
     id="path3871"
     inkscape:connector-curvature="0" />
  <path
     style="display:inline;fill:#ffffff;fill-opacity:1;stroke:#ffffff;stroke-width:1.80845642px;stroke-linecap:butt;stroke-linejoin:miter;stroke-opacity:1"
     d="m 355.51203,31.883344 1.95016,-13.606839 5.93518,0.462058 -5.08732,29.596725 0.42396,3.228706 0.84792,2.690785 0.8479,1.921698 0.93265,0.845621 0.93265,0.159813 1.5262,-0.307416 1.0175,-1.229355 0.33902,-1.691285 0.33903,-2.690784 1.4415,-0.159813 -0.59359,5.61175 -1.27187,4.76615 -2.03489,1.998816 c 0,0 -0.93265,0.61469 -1.52619,0.38545 -0.59359,-0.23079 -2.28929,-1.30753 -2.28929,-1.30753 l -2.20452,-9.148064 -1.44135,3.228706 -2.20447,3.536071 -2.96762,2.460187 -2.11971,0.76923 -2.79801,0.23079 -2.79802,-0.23079 -1.95012,-0.92204 -3.47635,-3.305616 -1.18697,-2.479219 -0.91149,-2.229387 -0.44511,-1.595345 -0.59359,-1.749886 -0.48749,-3.017333 -0.19087,-2.998098 -0.25437,-3.766872 c 0,0 0.33941,-5.458093 0.33941,-5.765599 0,-0.307417 0.67828,-4.535584 0.67828,-4.535584 l 1.5262,-5.227486 2.03492,-4.074379 1.95016,-2.075537 2.37407,-1.536731 1.61097,-0.76923 0.93265,3.920671 -1.35661,1.076595 -0.8479,0.922043 -0.84791,1.4603 -0.50869,2.075587 -0.59356,1.99878 -0.33942,2.921209 -0.25436,3.22889 -0.33901,3.305473 0.16969,5.458094 0.25437,2.767542 v 3.690065 l 0.67827,3.536263 1.10225,3.920477 1.18702,2.229389 2.1197,0.998423 1.61097,-0.230791 1.18702,-0.614678 2.28928,-3.074866 1.69578,-4.305169 2.88281,-15.912935 z"
     id="path3884"
     inkscape:connector-curvature="0" />
  <path
     style="display:inline;fill:#ffffff;fill-opacity:1;stroke:#ffffff;stroke-width:1.80845642px;stroke-linecap:butt;stroke-linejoin:miter;stroke-opacity:1"
     d="m 345.25501,16.650051 1.28903,0.01883 0.80939,0.326689 1.22907,0.788788 1.34888,0.952214 0.98924,0.788789 1.13916,1.412351 1.16907,1.875356 0.80938,1.793978 1.31898,3.99526 0.62957,1.984076 -0.86939,5.84363 -0.20968,-1.549135 -0.86939,-3.288785 -1.10922,-3.315762 -0.92925,-2.527675 -1.34903,-2.418965 -0.68958,-0.652003 -1.46889,-1.142312 c 0,0 -0.72123,-0.124553 -0.76568,-0.124553 -0.0442,0 -1.26862,-0.005 -1.26862,-0.005 z"
     id="path3886"
     inkscape:connector-curvature="0" />
  <path
     style="display:inline;fill:#ffffff;fill-opacity:1;stroke:#ffffff;stroke-width:0;stroke-linecap:butt;stroke-linejoin:miter;stroke-miterlimit:4;stroke-dasharray:none;stroke-opacity:1"
     d="m 345.74372,22.275723 -0.52457,0.03755 -1.30103,0.875834 -0.86038,0.685758 -2.3502,-5.936038 c 0,0 0.88139,-0.799413 0.98626,-0.875844 0.10505,-0.07093 1.48987,-0.913119 1.48987,-0.913119 l 0.79739,-0.342664 0.23085,-0.01883 1.78366,5.745768 z"
     id="path3888"
     inkscape:connector-curvature="0" />
  <g
     inkscape:groupmode="layer"
     id="layer1"
     inkscape:label="Layer 1"
     style="display:inline">
    <path
       style="fill:#ffffff;fill-opacity:1;stroke:#ffffff;stroke-width:0;stroke-linecap:butt;stroke-linejoin:miter;stroke-miterlimit:4;stroke-dasharray:none;stroke-opacity:1"
       d="m 152.8715,91.198973 c 0,0 4.97822,0.38751 6.10964,0.58127 1.13142,0.19376 15.83981,4.84389 16.74495,5.2314 0.90513,0.38751 1.3577,2.51883 1.3577,2.51883 l 16.0661,11.431597 9.95645,-4.26264 12.89814,3.10011 5.43079,-2.90634 -5.88336,-25.188257 h 2.7154 l 9.27761,12.01286 17.42379,-1.3563 9.5039,-12.01286 7.46734,0.77503 -5.88336,-1.55005 4.07309,-5.42516 8.82504,-2.13132 4.75195,1.7438 -2.94168,8.3315 -1.3577,7.94399 13.57699,-0.96878 20.59176,1.93756 1.13141,22.088177 -11.08787,1.16252 16.97123,4.26264 7.69363,7.36271 17.19751,6.58772 4.97822,9.10652 18.55522,5.42516 7.69363,11.43159 -1.13141,2.51883 -3.84683,7.75024 -24.21228,5.61892 -23.30716,-7.16897 -7.69363,0.19376 -2.03655,0.77502 2.94169,5.42516 -6.56221,9.10653 -22.62831,4.8439 h -6.56221 l -89.38182,-24.41324 -20.36548,-6.20019 1.35771,-3.68136 4.07309,-5.42517 4.75194,-8.91276 -1.3577,-19.56935 4.97823,-1.7438 -14.02955,-18.019297 -9.05133,-4.06888 -0.90513,-1.55005 z"
       id="path25"
       inkscape:connector-curvature="0" />
  </g>
  <g
     inkscape:groupmode="layer"
     id="layer2"
     inkscape:label="Layer 2"
     style="display:inline">
    <path
       style="fill:#666666;fill-opacity:1;stroke:#ffffff;stroke-width:0;stroke-linecap:butt;stroke-linejoin:miter;stroke-miterlimit:4;stroke-dasharray:none;stroke-opacity:1"
       d="m 250.25323,97.560483 0.96004,0.41102 0.40001,0.61652 0.40002,0.82204 v 0.753537 0.95904 l -0.64002,1.09605 -0.88004,1.09604 -0.72003,0.27402 -1.52006,-0.54802 -0.72002,-0.89055 -0.24002,-0.95904 0.08,-1.16456 0.72003,-1.096037 1.12005,-1.02754 z"
       id="path837"
       inkscape:connector-curvature="0" />
    <path
       style="fill:#666666;fill-opacity:1;stroke:#ffffff;stroke-width:0.46525386px;stroke-linecap:butt;stroke-linejoin:miter;stroke-opacity:1"
       d="m 259.13358,97.149463 -0.56002,0.0686 -0.48002,0.47952 -0.56002,0.75353 -0.48002,1.918087 0.32002,1.09605 0.96003,1.30155 0.64003,0.20551 0.72002,-0.0686 1.36006,-1.23304 0.40001,-1.50707 -0.16001,-1.370057 -0.80003,-1.16455 -0.56002,-0.34253 z"
       id="path839"
       inkscape:connector-curvature="0" />
    <path
       style="fill:#666666;fill-opacity:1;stroke:#ffffff;stroke-width:0.46525386px;stroke-linecap:butt;stroke-linejoin:miter;stroke-opacity:1"
       d="m 268.57395,96.053423 c -0.32001,0.137 -1.20004,0.68502 -1.20004,0.68502 0,0 -0.48003,0.41102 -0.64004,0.75354 -0.16,0.3425 -0.48001,0.61652 -0.48001,0.89054 0,0.27401 0,1.30156 0,1.30156 l 0.32001,1.233047 0.72003,1.09604 c 0,0 0.16,0.13701 0.48001,0.13701 0.32002,0 1.04005,0.0686 1.52007,-0.34251 0.48002,-0.41102 1.44006,-1.30156 1.44006,-1.30156 l 0.08,-1.712587 c 0,0 -0.40001,-0.82202 -0.48001,-1.16454 -0.0801,-0.34252 -0.24001,-0.61652 -0.48002,-0.89054 -0.24001,-0.274 -1.04004,-0.61653 -1.28006,-0.68502 z"
       id="path841"
       inkscape:connector-curvature="0" />
    <path
       style="fill:#666666;fill-opacity:1;stroke:#ffffff;stroke-width:0;stroke-linecap:butt;stroke-linejoin:miter;stroke-miterlimit:4;stroke-dasharray:none;stroke-opacity:1"
       d="m 277.53431,95.505393 -0.48002,0.13701 c 0,0 -0.24002,-0.0686 -0.56003,0.34251 -0.32001,0.41101 -0.88003,1.23305 -0.88003,1.23305 0,0 -0.32001,0.0685 -0.40001,0.61652 -0.08,0.54804 -0.16001,0.47954 -0.16001,1.02756 0,0.54802 0.64003,1.781077 0.64003,1.781077 l 0.64002,0.41101 0.32001,0.41102 0.80002,-0.0686 c 0,0 1.04005,-0.61652 1.28006,-0.89054 0.24002,-0.27401 0.32001,-0.47952 0.40002,-0.890537 0.08,-0.41101 0.24,-1.37005 0.24,-1.84957 0,-0.47954 -0.08,-0.89054 -0.32001,-1.23306 -0.24,-0.34252 -0.80003,-0.89054 -0.80003,-0.89054 z"
       id="path843"
       inkscape:connector-curvature="0" />
    <path
       style="fill:#666666;fill-opacity:1;stroke:#ffffff;stroke-width:0.46525386px;stroke-linecap:butt;stroke-linejoin:miter;stroke-opacity:1"
       d="m 286.97467,94.888863 -1.20004,0.27401 -0.64002,1.02755 c 0,0 -0.56002,0.54802 -0.64004,1.02754 -0.08,0.47952 -0.08,0.54802 -0.08,0.95904 0,0.41102 0,0.61652 0.24001,1.02755 0.24001,0.41102 0.64003,0.822027 0.64003,0.822027 0,0 0.08,0.34253 0.4,0.34253 0.32002,0 0.40003,0 0.40003,0 0,0 0.40001,0.0685 0.72002,0.0685 0.32001,0 0.48002,0.27401 0.88004,-0.27402 0.40001,-0.548017 0.64002,-0.548017 0.72003,-0.890537 0.08,-0.34252 0.24001,-0.61652 0.24001,-0.61652 l 0.16001,-1.57558 c 0,0 -0.08,-0.61652 -0.24002,-0.89054 -0.16,-0.274 -0.16,-0.274 -0.48002,-0.54802 -0.32001,-0.27401 -0.64003,-0.61653 -1.12005,-0.75353 z"
       id="path845"
       inkscape:connector-curvature="0" />
    <path
       style="fill:#666666;fill-opacity:1;stroke:#ffffff;stroke-width:0.46525386px;stroke-linecap:butt;stroke-linejoin:miter;stroke-opacity:1"
       d="m 295.53501,94.203843 c -0.40001,0.0685 -0.80002,0.54802 -1.04004,0.89053 -0.24,0.34251 -1.12004,1.71257 -1.12004,1.71257 0,0 -0.32001,0.75354 0,1.37006 0.32001,0.61652 0.16,0.95905 0.56003,1.30156 0.4,0.34252 1.76006,0.548017 1.76006,0.548017 0,0 0.16001,0.0686 0.80003,-0.411007 0.64002,-0.47952 0.80003,-0.47952 0.96004,-0.89054 0.16001,-0.41101 0.16001,-0.95905 0.24001,-1.57557 0.08,-0.61653 -0.40002,-1.57557 -0.40002,-1.57557 0,0 -0.08,-0.0685 -0.48002,-0.47952 -0.40001,-0.41102 -1.04004,-0.89053 -1.04004,-0.89053"
       id="path849"
       inkscape:connector-curvature="0" />
    <path
       style="fill:#666666;fill-opacity:1;stroke:#ffffff;stroke-width:0.46525386px;stroke-linecap:butt;stroke-linejoin:miter;stroke-opacity:1"
       d="m 250.73325,108.79498 -0.88004,0.61653 -0.48002,0.61653 -0.48002,1.02754 -0.16,1.23305 0.08,0.68504 0.16001,0.95904 0.56002,0.41102 0.56003,0.27402 1.04003,0.2055 c 0,0 0.80003,-0.41102 1.12005,-0.68502 0.32001,-0.27402 0.96003,-0.89055 0.96003,-1.30157 0,-0.41101 -0.08,-1.23306 -0.24,-1.78108 -0.16001,-0.54802 0.08,-0.27401 -0.16001,-0.68503 -0.24001,-0.41101 -0.64002,-0.89055 -0.64002,-0.89055 l -0.64002,-0.4795 z"
       id="path851"
       inkscape:connector-curvature="0" />
  </g>
  <path
     style="display:inline;fill:#666666;fill-opacity:1;stroke:#ffffff;stroke-width:0.46525386px;stroke-linecap:butt;stroke-linejoin:miter;stroke-opacity:1"
     d="m 260.3321,108.44819 -0.56003,0.0685 -0.48002,0.47952 -0.56002,0.75354 -0.48001,1.91809 0.32001,1.09604 0.96003,1.30156 0.64003,0.2055 0.72003,-0.0686 1.36005,-1.23305 0.40002,-1.50706 -0.16001,-1.37006 -0.80004,-1.16456 -0.56002,-0.34252 z"
     id="path839-5"
     inkscape:connector-curvature="0" />
  <path
     style="display:inline;fill:#666666;fill-opacity:1;stroke:#ffffff;stroke-width:0.46525386px;stroke-linecap:butt;stroke-linejoin:miter;stroke-opacity:1"
     d="m 269.77246,107.35214 c -0.32001,0.13701 -1.20004,0.68503 -1.20004,0.68503 0,0 -0.48002,0.41102 -0.64003,0.75355 -0.16,0.34249 -0.48002,0.61652 -0.48002,0.89052 0,0.27402 0,1.30156 0,1.30156 l 0.32002,1.23306 0.72002,1.09604 c 0,0 0.16,0.13701 0.48002,0.13701 0.32001,0 1.04005,0.0686 1.52007,-0.34251 0.48001,-0.41101 1.44006,-1.30156 1.44006,-1.30156 l 0.08,-1.71258 c 0,0 -0.40001,-0.82204 -0.48002,-1.16454 -0.0801,-0.34253 -0.24001,-0.61654 -0.48002,-0.89055 -0.24001,-0.27401 -1.04004,-0.61652 -1.28005,-0.68503 z"
     id="path841-3"
     inkscape:connector-curvature="0" />
  <path
     style="display:inline;fill:#666666;fill-opacity:1;stroke:#ffffff;stroke-width:0;stroke-linecap:butt;stroke-linejoin:miter;stroke-miterlimit:4;stroke-dasharray:none;stroke-opacity:1"
     d="m 278.73282,106.80412 -0.48002,0.13701 c 0,0 -0.24002,-0.0685 -0.56003,0.34251 -0.32001,0.41102 -0.88003,1.23306 -0.88003,1.23306 0,0 -0.32001,0.0685 -0.40002,0.61651 -0.08,0.54803 -0.16001,0.47953 -0.16001,1.02755 0,0.54802 0.64003,1.78108 0.64003,1.78108 l 0.64003,0.41102 0.32001,0.41102 0.80003,-0.0685 c 0,0 1.04005,-0.61652 1.28005,-0.89053 0.24002,-0.27402 0.32001,-0.47954 0.40002,-0.89054 0.08,-0.41102 0.24001,-1.37006 0.24001,-1.84959 0,-0.47952 -0.08,-0.89053 -0.32002,-1.23305 -0.24,-0.34252 -0.80003,-0.89054 -0.80003,-0.89054 z"
     id="path843-3"
     inkscape:connector-curvature="0" />
  <path
     style="display:inline;fill:#666666;fill-opacity:1;stroke:#ffffff;stroke-width:0.46525386px;stroke-linecap:butt;stroke-linejoin:miter;stroke-opacity:1"
     d="m 288.17318,106.18759 -1.20004,0.274 -0.64002,1.02756 c 0,0 -0.56003,0.54802 -0.64003,1.02755 -0.08,0.47951 -0.08,0.54802 -0.08,0.95904 0,0.41102 0,0.61652 0.24001,1.02754 0.24,0.41102 0.64002,0.82204 0.64002,0.82204 0,0 0.08,0.34252 0.40002,0.34252 0.32001,0 0.40001,0 0.40001,0 0,0 0.40002,0.0685 0.72003,0.0685 0.32001,0 0.48002,0.27402 0.88003,-0.274 0.40002,-0.54802 0.64004,-0.54802 0.72003,-0.89055 0.08,-0.34251 0.24002,-0.61651 0.24002,-0.61651 l 0.16,-1.57558 c 0,0 -0.08,-0.61653 -0.24001,-0.89055 -0.16001,-0.274 -0.16001,-0.274 -0.48002,-0.54802 -0.32001,-0.27401 -0.64002,-0.61652 -1.12005,-0.75353 z"
     id="path845-2"
     inkscape:connector-curvature="0" />
  <path
     style="display:inline;fill:#666666;fill-opacity:1;stroke:#ffffff;stroke-width:0.46525386px;stroke-linecap:butt;stroke-linejoin:miter;stroke-opacity:1"
     d="m 296.73353,105.50257 c -0.40002,0.0685 -0.80004,0.54802 -1.04004,0.89053 -0.24002,0.34251 -1.12005,1.71258 -1.12005,1.71258 0,0 -0.32001,0.75353 0,1.37006 0.32001,0.61652 0.16001,0.95904 0.56002,1.30156 0.40002,0.34252 1.76007,0.54802 1.76007,0.54802 0,0 0.16001,0.0686 0.80003,-0.41102 0.64003,-0.47952 0.80004,-0.47952 0.96004,-0.89054 0.16001,-0.41102 0.16001,-0.95904 0.24001,-1.57557 0.08,-0.61653 -0.40001,-1.57557 -0.40001,-1.57557 0,0 -0.08,-0.0684 -0.48003,-0.47952 -0.4,-0.41101 -1.04004,-0.89053 -1.04004,-0.89053"
     id="path849-6"
     inkscape:connector-curvature="0" />
  <path
     style="fill:#666666;fill-opacity:1;stroke:#ffffff;stroke-width:0.46525386px;stroke-linecap:butt;stroke-linejoin:miter;stroke-opacity:1"
     d="m 245.76071,126.75318 7.24106,2.03443 -0.56572,3.00322 -7.35419,-1.93757 z"
     id="path910"
     inkscape:connector-curvature="0" />
  <path
     style="fill:#666666;fill-opacity:1;stroke:#ffffff;stroke-width:0.46525386px;stroke-linecap:butt;stroke-linejoin:miter;stroke-opacity:1"
     d="m 248.13668,142.64115 1.47084,-0.77501 1.69712,-0.58128 1.01827,-0.0969 h 0.56572 l 1.01827,1.06565 -2.03655,8.8159 -2.37597,-0.58127 -1.81026,-0.29063 -0.79199,-1.16254 c 0,0 -0.33943,-0.67815 -0.33943,-1.06565 0,-0.38753 1.58398,-5.32829 1.58398,-5.32829 z"
     id="path912"
     inkscape:connector-curvature="0" />
  <path
     style="fill:#666666;fill-opacity:1;stroke:#ffffff;stroke-width:0.46525386px;stroke-linecap:butt;stroke-linejoin:miter;stroke-opacity:1"
     d="m 263.05373,130.03092 c 1.28005,-0.41101 20.64082,-4.24719 20.64082,-4.24719 0,0 0.80002,4.52121 -0.24001,4.52121 -1.04005,0 -15.1206,2.80862 -15.1206,2.80862 z"
     id="path914"
     inkscape:connector-curvature="0" />
  <path
     style="fill:#666666;fill-opacity:1;stroke:#ffffff;stroke-width:0.46525386px;stroke-linecap:butt;stroke-linejoin:miter;stroke-opacity:1"
     d="m 295.42984,123.36244 14.25584,-3.39072 4.75194,4.35951 -18.78149,3.10009 z"
     id="path916"
     inkscape:connector-curvature="0" />
  <path
     style="fill:#666666;fill-opacity:1;stroke:#ffffff;stroke-width:0;stroke-linecap:butt;stroke-linejoin:miter;stroke-miterlimit:4;stroke-dasharray:none;stroke-opacity:1"
     d="m 283.66313,144.48184 c 0.62227,-0.2422 10.01303,-2.42195 10.01303,-2.42195 l 0.45256,1.01721 -9.84332,2.42195 z"
     id="path918"
     inkscape:connector-curvature="0" />
  <path
     style="fill:#666666;fill-opacity:1;stroke:#ffffff;stroke-width:0;stroke-linecap:butt;stroke-linejoin:miter;stroke-miterlimit:4;stroke-dasharray:none;stroke-opacity:1"
     d="m 284.37026,146.00766 c 0.62228,-0.24219 10.01303,-2.42195 10.01303,-2.42195 l 0.45255,1.01723 -9.8433,2.42195 z"
     id="path918-0"
     inkscape:connector-curvature="0" />
  <path
     style="fill:#666666;fill-opacity:1;stroke:#ffffff;stroke-width:0;stroke-linecap:butt;stroke-linejoin:miter;stroke-miterlimit:4;stroke-dasharray:none;stroke-opacity:1"
     d="m 285.04911,147.55771 c 0.62227,-0.2422 10.01302,-2.42194 10.01302,-2.42194 l 0.45257,1.01721 -9.84332,2.42194 z"
     id="path918-2"
     inkscape:connector-curvature="0" />
  <path
     style="fill:#666666;fill-opacity:1;stroke:#ffffff;stroke-width:0;stroke-linecap:butt;stroke-linejoin:miter;stroke-miterlimit:4;stroke-dasharray:none;stroke-opacity:1"
     d="m 285.84109,149.15619 c 0.62228,-0.24218 10.01303,-2.42195 10.01303,-2.42195 l 0.45257,1.01722 -9.84332,2.42196 z"
     id="path918-8"
     inkscape:connector-curvature="0" />
  <path
     style="fill:#666666;fill-opacity:1;stroke:#ffffff;stroke-width:0;stroke-linecap:butt;stroke-linejoin:miter;stroke-miterlimit:4;stroke-dasharray:none;stroke-opacity:1"
     d="m 286.85937,150.80311 c 0.62228,-0.24218 10.01302,-2.42194 10.01302,-2.42194 l 0.45258,1.01722 -9.84332,2.42194 z"
     id="path918-3"
     inkscape:connector-curvature="0" />
  <path
     style="fill:#666666;fill-opacity:1;stroke:#ffffff;stroke-width:0;stroke-linecap:butt;stroke-linejoin:miter;stroke-miterlimit:4;stroke-dasharray:none;stroke-opacity:1"
     d="m 323.33338,136.30776 c 0.62227,-0.24219 10.01303,-2.42195 10.01303,-2.42195 l 0.45256,1.01722 -9.84332,2.42195 z"
     id="path918-9"
     inkscape:connector-curvature="0" />
  <path
     style="fill:#666666;fill-opacity:1;stroke:#ffffff;stroke-width:0;stroke-linecap:butt;stroke-linejoin:miter;stroke-miterlimit:4;stroke-dasharray:none;stroke-opacity:1"
     d="m 324.04051,137.83359 c 0.62228,-0.24219 10.01303,-2.42195 10.01303,-2.42195 l 0.45257,1.01722 -9.84332,2.42195 z"
     id="path918-0-7"
     inkscape:connector-curvature="0" />
  <path
     style="fill:#666666;fill-opacity:1;stroke:#ffffff;stroke-width:0;stroke-linecap:butt;stroke-linejoin:miter;stroke-miterlimit:4;stroke-dasharray:none;stroke-opacity:1"
     d="m 324.71936,139.38364 c 0.62228,-0.24219 10.01302,-2.42196 10.01302,-2.42196 l 0.45258,1.01722 -9.84332,2.42195 z"
     id="path918-2-0"
     inkscape:connector-curvature="0" />
  <path
     style="fill:#666666;fill-opacity:1;stroke:#ffffff;stroke-width:0;stroke-linecap:butt;stroke-linejoin:miter;stroke-miterlimit:4;stroke-dasharray:none;stroke-opacity:1"
     d="m 325.51135,140.98212 c 0.62228,-0.2422 10.01303,-2.42195 10.01303,-2.42195 l 0.45256,1.01723 -9.84331,2.42194 z"
     id="path918-8-4"
     inkscape:connector-curvature="0" />
  <path
     style="fill:#666666;fill-opacity:1;stroke:#ffffff;stroke-width:0;stroke-linecap:butt;stroke-linejoin:miter;stroke-miterlimit:4;stroke-dasharray:none;stroke-opacity:1"
     d="m 326.52963,142.62904 c 0.62227,-0.24218 10.01301,-2.42195 10.01301,-2.42195 l 0.45257,1.01723 -9.84331,2.42195 z"
     id="path918-3-1"
     inkscape:connector-curvature="0" />
  <path
     style="fill:#ffffff;fill-opacity:1;stroke:#ffffff;stroke-width:0;stroke-linecap:butt;stroke-linejoin:miter;stroke-miterlimit:4;stroke-dasharray:none;stroke-opacity:1"
     d="m 166.52786,188.17664 v 52.34247 h 9.66748 v -52.30897 z"
     id="path943"
     inkscape:connector-curvature="0" />
  <path
     style="fill:#ffffff;fill-opacity:1;stroke:#ffffff;stroke-width:0;stroke-linecap:butt;stroke-linejoin:miter;stroke-miterlimit:4;stroke-dasharray:none;stroke-opacity:1"
     d="m 189.85065,187.9912 v 52.34247 h 9.66748 V 188.0247 Z"
     id="path943-5"
     inkscape:connector-curvature="0" />
  <path
     style="fill:#ffffff;fill-opacity:1;stroke:#ffffff;stroke-width:0;stroke-linecap:butt;stroke-linejoin:miter;stroke-miterlimit:4;stroke-dasharray:none;stroke-opacity:1"
     d="m 213.3248,187.66086 v 52.34247 h 9.66747 v -52.30896 z"
     id="path943-5-9"
     inkscape:connector-curvature="0" />
</svg>
